<svg xmlns="http://www.w3.org/2000/svg" version="1.1" xmlns:xlink="http://www.w3.org/1999/xlink" xmlns:svgjs="http://svgjs.dev/svgjs" width="2000" height="1247" viewBox="0 0 2000 1247"><g transform="matrix(1,0,0,1,-1.2121212121212466,-0.945083695340827)"><svg viewBox="0 0 396 247" data-background-color="#ffffff" preserveAspectRatio="xMidYMid meet" height="1247" width="2000" xmlns="http://www.w3.org/2000/svg" xmlns:xlink="http://www.w3.org/1999/xlink"><g id="tight-bounds" transform="matrix(1,0,0,1,0.2400000000000091,0.18719781295042992)"><svg viewBox="0 0 395.52 246.62560437409914" height="246.62560437409914" width="395.52"><g><svg viewBox="0 0 396.44117344641836 247.2" height="246.62560437409914" width="395.52"><g><svg viewBox="0 0 208.9512893982808 247.2" height="247.2" width="208.9512893982808"><g id="textblocktransform"><svg viewBox="0 0 208.9512893982808 247.2" height="247.2" width="208.9512893982808" id="textblock"><g><svg viewBox="0 0 208.9512893982808 247.2" height="247.2" width="208.9512893982808"><g transform="matrix(1,0,0,1,0,0)"><svg width="208.9512893982808" viewBox="0.25 -34.9 29.5 34.9" height="247.2" data-palette-color="#453de6"><path d="M29.75 0L21.75 0 19.55-8.4 10-8.4 7.85 0 0.25 0 9.7-34.9 20.3-34.9 29.75 0ZM18.4-14.45L15-27.65 14.6-27.65 11.2-14.45 18.4-14.45Z" opacity="1" transform="matrix(1,0,0,1,0,0)" fill="#453de6" class="wordmark-text-0" data-fill-palette-color="primary" id="text-0"></path></svg></g></svg></g></svg></g></svg></g><g transform="matrix(1,0,0,1,267.3092765982808,59.03405157593123)"><svg viewBox="0 0 129.13189684813753 129.13189684813753" height="129.13189684813753" width="129.13189684813753"><g data-palette-color="#453de6"><rect width="35.29605180515759" height="129.13189684813753" fill="#453de6" stroke="transparent" data-fill-palette-color="accent" x="0" fill-opacity="1"></rect><rect width="35.29605180515759" height="129.13189684813753" fill="#453de6" stroke="transparent" data-fill-palette-color="accent" x="43.04396561604584" fill-opacity="0.75"></rect><rect width="35.29605180515759" height="129.13189684813753" fill="#453de6" stroke="transparent" data-fill-palette-color="accent" x="86.08793123209168" fill-opacity="0.5"></rect></g></svg></g></svg></g><defs></defs></svg><rect width="395.52" height="246.62560437409914" fill="none" stroke="none" visibility="hidden"></rect></g></svg></g></svg>